<svg xmlns="http://www.w3.org/2000/svg" viewBox="0 0 200 200">
  <!-- Background Circle -->
  <circle cx="100" cy="100" r="100" fill="#2A4365"/>
  
  <!-- Helmet Base -->
  <path d="M50,100 Q50,50 100,40 Q150,50 150,100 L140,130 L60,130 L50,100 Z" fill="#718096"/>
  
  <!-- Helmet Visor -->
  <path d="M60,90 Q100,110 140,90 L130,115 L70,115 L60,90 Z" fill="#1A202C"/>
  
  <!-- Helmet Top Design -->
  <path d="M85,40 L100,25 L115,40 L110,60 L90,60 L85,40 Z" fill="#E53E3E"/>
  
  <!-- Armor Plate -->
  <path d="M70,130 L130,130 L125,170 L75,170 L70,130 Z" fill="#A0AEC0"/>
  
  <!-- Shoulder Plates -->
  <path d="M50,110 L70,100 L60,130 L40,120 Z" fill="#CBD5E0"/>
  <path d="M150,110 L130,100 L140,130 L160,120 Z" fill="#CBD5E0"/>
  
  <!-- Sword Hilt (visible at bottom) -->
  <rect x="95" y="160" width="10" height="20" fill="#F6AD55"/>
  
  <!-- Decorative Lines on Armor -->
  <line x1="80" y1="140" x2="80" y2="160" stroke="#718096" stroke-width="2"/>
  <line x1="100" y1="140" x2="100" y2="160" stroke="#718096" stroke-width="2"/>
  <line x1="120" y1="140" x2="120" y2="160" stroke="#718096" stroke-width="2"/>
</svg> 